<svg width="22" height="21" viewBox="0 0 22 21" fill="none" xmlns="http://www.w3.org/2000/svg">
<path d="M20.6602 8.44001L19.6802 12.62C18.8402 16.23 17.1802 17.69 14.0602 17.39C13.5602 17.35 13.0202 17.26 12.4402 17.12L10.7602 16.72C6.59018 15.73 5.30018 13.67 6.28018 9.49001L7.26018 5.30001C7.46018 4.45001 7.70018 3.71001 8.00018 3.10001C9.17018 0.680008 11.1602 0.0300081 14.5002 0.820008L16.1702 1.21001C20.3602 2.19001 21.6402 4.26001 20.6602 8.44001Z" fill="#F4E850" stroke="black" stroke-linecap="round" stroke-linejoin="round"/>
<path d="M14.0599 17.3901C13.4399 17.8101 12.6599 18.1601 11.7099 18.4701L10.1299 18.9901C6.15985 20.2701 4.06985 19.2001 2.77985 15.2301L1.49985 11.2801C0.219853 7.3101 1.27985 5.2101 5.24985 3.9301L6.82985 3.4101C7.23985 3.2801 7.62985 3.1701 7.99985 3.1001C7.69985 3.7101 7.45985 4.4501 7.25985 5.3001L6.27985 9.4901C5.29985 13.6701 6.58985 15.7301 10.7599 16.7201L12.4399 17.1201C13.0199 17.2601 13.5599 17.3501 14.0599 17.3901Z" fill="#F4E850" stroke="black" stroke-linecap="round" stroke-linejoin="round"/>
</svg>
